<svg width="12" height="12" viewBox="0 0 12 12" fill="none" xmlns="http://www.w3.org/2000/svg">
<path d="M5.55023 6.03988C4.38523 3.78488 5.30023 1.79988 5.81523 1.00488C3.13523 1.09988 0.990234 3.29488 0.990234 5.99988C0.990234 6.06988 1.00023 6.13988 1.00023 6.20988C1.31023 6.07488 1.64523 5.99988 2.00023 5.99988C2.83023 5.99988 3.59023 6.41488 4.05023 7.07488C4.88523 7.31488 5.50023 8.08488 5.50023 8.99988C5.50023 9.75988 5.06523 10.4149 4.44023 10.7549C4.93023 10.9149 5.45523 11.0049 5.99523 11.0049C7.74523 11.0049 9.28523 10.1049 10.1802 8.74488C9.00023 8.85988 6.69023 8.25988 5.55023 6.03988Z" fill="#F6E05E"/>
<path d="M3.5 8H3.41C3.2 7.42 2.65 7 2 7C1.17 7 0.5 7.67 0.5 8.5C0.5 9.33 1.17 10 2 10C2.31 10 3.245 10 3.5 10C4.05 10 4.5 9.55 4.5 9C4.5 8.45 4.05 8 3.5 8Z" fill="#BEE3F8"/>
</svg>
