<svg width="12" height="12" viewBox="0 0 12 12" fill="none" xmlns="http://www.w3.org/2000/svg">
<path d="M3.38 2.4199L2.48 1.5249L1.775 2.2299L2.67 3.1249L3.38 2.4199ZM0.5 5.2499H2V6.2499H0.5V5.2499ZM5.5 0.274902H6.5V1.7499H5.5V0.274902ZM9.52 1.5224L10.224 2.2259L9.329 3.1209L8.6255 2.4169L9.52 1.5224ZM8.62 9.0799L9.515 9.9799L10.22 9.2749L9.32 8.3799L8.62 9.0799ZM10 5.2499H11.5V6.2499H10V5.2499ZM6 2.7499C4.345 2.7499 3 4.0949 3 5.7499C3 7.4049 4.345 8.7499 6 8.7499C7.655 8.7499 9 7.4049 9 5.7499C9 4.0949 7.655 2.7499 6 2.7499ZM6 7.7499C4.895 7.7499 4 6.8549 4 5.7499C4 4.6449 4.895 3.7499 6 3.7499C7.105 3.7499 8 4.6449 8 5.7499C8 6.8549 7.105 7.7499 6 7.7499ZM5.5 9.7499H6.5V11.2249H5.5V9.7499ZM1.775 9.2699L2.48 9.9749L3.375 9.0749L2.67 8.3699L1.775 9.2699Z" fill="#ECC94B"/>
</svg>
